PathFileType	4	(X/Y/Z)	C:\Users\WrightLab\Desktop\Jo\P1_boxCal22.trc
DataRate	CameraRate	NumFrames	NumMarkers	Units	OrigDataRate	OrigDataStartFrame	OrigNumFrames
100.00	100.00	       9	19	mm	100.00	329	       657
Frame#	Time	Headset_Front			Headset_Back			Headset_Left			Headset_Right			Left_Shoulder			Right_Shoulder			Sternum			C7			Left Elbow			Right Elbow			Left Wrist			Right Wrist			Left ASIS			Right ASIS			S2			Left Knee			Right Knee			Left Ankle			Right Ankle			
		X1	Y1	Z1	X2	Y2	Z2	X3	Y3	Z3	X4	Y4	Z4	X5	Y5	Z5	X6	Y6	Z6	X7	Y7	Z7	X8	Y8	Z8	X9	Y9	Z9	X10	Y10	Z10	X11	Y11	Z11	X12	Y12	Z12	X13	Y13	Z13	X14	Y14	Z14	X15	Y15	Z15	X16	Y16	Z16	X17	Y17	Z17	X18	Y18	Z18	X19	Y19	Z19	

329	3.280	-608.08582	1421.84912	345.95895	-691.36481	1506.61279	65.00096	-553.51099	1455.00659	146.95381	-738.67810	1450.71643	277.09622	-508.99063	1288.67542	51.37047	-849.34943	1275.10217	207.47328	-639.43219	1181.58240	261.18207	-714.43524	1282.24243	25.28786	-457.19476	973.89288	-36.03223	-966.80951	1015.93793	207.62234	-346.80240	791.09851	8.50424	-1020.73315	800.72595	309.47818	-542.33417	905.99573	226.19945	-732.78931	898.27386	285.20477	-738.84076	899.81042	-41.76485	-687.78857	131.23828	156.26384	-864.92670	457.89789	185.59378	-485.70703	481.59723	220.73209	-608.54797	157.12531	80.50013	
330	3.290	-604.11975	1422.11597	354.82687	-689.65942	1506.34998	74.24599	-550.91199	1455.28601	156.61786	-735.26782	1450.85107	287.00992	-507.65985	1288.58081	58.63677	-846.37549	1276.06067	218.96703	-636.91888	1180.73645	266.05533	-713.94037	1282.41296	35.12737	-457.26608	974.90546	-28.71874	-964.88458	1017.89423	220.63300	-346.11954	791.57733	12.93244	-1016.38922	801.85175	328.33514	-539.34802	907.13245	233.33937	-729.85638	899.16003	294.76358	-738.23358	900.14398	-33.40105	-597.19775	-29.19793	-117.38015	-863.53613	457.66617	190.03758	-483.78705	485.11777	230.74014	-602.29413	149.52599	107.67458	
331	3.300	-599.61859	1421.67212	363.38428	-687.71265	1506.32861	83.73226	-548.74823	1454.43945	164.40259	-732.33081	1451.40173	297.00635	-506.97040	1288.97168	66.39322	-843.51202	1276.95996	230.14583	-633.31299	1181.64941	278.78235	-713.39807	1283.03735	44.82358	-457.30563	974.78156	-22.81413	-962.85687	1018.83093	234.07971	-345.14447	791.79102	17.20214	-1011.93768	803.60321	345.79648	-537.18542	907.08008	241.87631	-727.45099	899.26312	304.26489	-737.26941	900.34131	-24.01649	-669.62518	122.52563	215.51732	-860.30548	456.63754	195.60933	-481.37775	488.09653	240.50211	-593.99164	141.96317	134.69386	
332	3.310	-596.35748	1422.03418	372.77417	-685.66205	1505.85925	93.33891	-545.88141	1454.59998	173.84801	-728.50739	1451.01636	306.80295	-506.01434	1288.23474	73.95742	-840.32660	1276.96790	241.70314	-630.80719	1179.31201	284.89868	-712.46454	1282.79309	54.86636	-457.02042	974.59747	-15.71935	-961.29333	1019.97565	247.72850	-344.64874	792.51703	20.85395	-1007.15240	804.88055	363.02728	-534.53027	906.52539	249.29277	-724.52728	898.82434	313.18842	-736.41840	900.84192	-16.38758				-858.46155	456.83499	200.15999	-479.42642	489.86868	250.33438	-583.25348	133.22188	162.85754	
333	3.320	-591.48639	1421.13855	381.39938	-683.46265	1505.23743	102.73906	-543.29327	1453.57764	181.42030	-724.94568	1450.33264	317.06525	-504.20761	1288.06067	82.25168	-837.13501	1276.91162	253.23160	-626.46545	1177.76648	291.20380	-710.88458	1282.46765	64.65125	-456.08725	974.47089	-9.27132	-959.15424	1020.35114	260.93115	-343.16489	791.80682	26.57107	-1002.03809	805.88849	380.44769	-532.85797	905.67163	256.50330	-721.66217	897.70117	321.53247	-736.52637	900.35376	-7.86589				-855.89258	455.57059	205.71884	-477.68506	491.02332	261.00983	-572.81506	125.98439	190.64902	
334	3.330	-588.11615	1420.43018	390.85126	-680.93414	1504.64697	112.81172	-540.13678	1452.79724	190.74406	-721.03131	1450.00598	326.77905	-502.83920	1286.81543	90.62511	-833.71222	1276.90845	264.40930	-623.20642	1177.43518	301.99466	-709.37927	1282.01379	75.05425	-455.65610	973.31946	-1.91152	-957.17865	1020.54449	275.07297	-342.24698	791.42914	30.71519	-996.41541	806.29022	397.52783	-530.24237	903.25415	264.55234	-718.91968	896.83478	330.42554	-735.20361	899.59393	1.17830	-634.69647	108.41608	300.54691	-853.34412	455.28168	210.22296	-475.43250	492.16757	270.38721	-560.05652	120.53120	219.43599	
335	3.340	-583.65808	1419.42493	399.72168	-678.31824	1504.02368	121.98252	-537.21484	1451.48828	199.05989	-716.87085	1449.34363	336.67474	-500.67212	1285.92004	98.70701	-829.65417	1275.95703	276.65738	-620.33887	1176.23254	311.88281	-708.02234	1281.46729	84.19897	-455.36926	972.32617	5.91694	-954.50348	1020.67230	288.84680	-340.87857	790.93243	35.72581	-990.92542	807.08691	414.05951	-526.76807	901.59668	272.11902	-716.21967	894.74847	339.54993	-733.88190	899.40497	8.98736	-619.79932	107.75311	329.62170	-850.31042	454.04160	216.23997	-473.28165	492.11868	280.05753	-546.76410	115.11242	247.22830	
336	3.350	-578.70593	1418.10986	408.47003	-675.51764	1503.05725	131.84143	-534.19952	1450.73560	211.18346	-712.72729	1448.74683	346.57037	-498.46542	1284.73047	106.08519	-825.76349	1274.98291	287.76163	-616.11090	1173.47681	318.89709	-705.30011	1280.99097	95.07458	-454.47000	970.80676	12.88517	-952.12030	1020.75983	302.72870	-340.26025	789.56915	41.15902	-985.31091	807.75726	430.96378	-524.64362	899.47260	280.54727	-713.97894	892.74103	348.53738	-731.64984	898.67572	17.75838	-606.61279	105.66679	356.03680	-845.86212	451.47592	223.51901	-471.52039	492.60495	288.49667	-533.21216	111.82901	273.57379	
337	3.360	-574.47638	1416.76074	417.89206	-672.50433	1502.00427	142.10814	-530.31537	1449.51123	218.78491	-708.67822	1447.88379	356.67838	-496.10721	1283.57373	115.10527	-821.78827	1274.10449	298.74762	-612.51117	1171.55933	328.81119	-702.53503	1280.04492	104.73321	-453.54813	969.46375	20.02631	-949.18500	1019.95062	317.00504	-339.36273	788.52289	46.20187	-979.13812	808.26593	446.71091	-522.17957	897.59271	288.53986	-710.99536	889.96558	356.59628	-729.74084	897.58868	26.12732	-570.64813	99.08154	399.81366	-845.18921	452.22440	229.27246	-469.35641	491.61511	297.96396	-519.23273	109.43076	299.27484	
